<svg viewBox="0 0 400 400" version="1.1" xmlns="http://www.w3.org/2000/svg" xmlns:xlink="http://www.w3.org/1999/xlink"><g fill="none" stroke="rgb(0,0,0)" stroke-width="4" stroke-linecap="round" stroke-linejoin="round"><path d="M87,74c0.046,0.016 0.093,0.031 0,0c-0.093,-0.031 -0.325,-0.110 -1,0c-0.675,0.110 -1.793,0.408 -3,1c-1.207,0.592 -2.502,1.479 -4,2c-1.498,0.521 -3.199,0.675 -5,1c-1.801,0.325 -3.701,0.819 -5,1c-1.299,0.181 -1.997,0.049 -3,0c-1.003,-0.049 -2.310,-0.015 -3,0c-0.690,0.015 -0.764,0.011 -1,0c-0.236,-0.011 -0.636,-0.029 -1,0c-0.364,0.029 -0.693,0.105 -1,0c-0.307,-0.105 -0.590,-0.390 -1,0c-0.410,0.390 -0.945,1.454 -1,2c-0.055,0.546 0.370,0.573 0,1c-0.370,0.427 -1.536,1.253 -2,2c-0.464,0.747 -0.225,1.415 -1,3c-0.775,1.585 -2.562,4.089 -3,5c-0.438,0.911 0.475,0.231 0,1c-0.475,0.769 -2.337,2.989 -3,4c-0.663,1.011 -0.128,0.815 -1,2c-0.872,1.185 -3.150,3.752 -4,5c-0.850,1.248 -0.273,1.176 -1,2c-0.727,0.824 -2.759,2.544 -4,4c-1.241,1.456 -1.692,2.647 -3,4c-1.308,1.353 -3.474,2.868 -5,4c-1.526,1.132 -2.411,1.882 -4,3c-1.589,1.118 -3.883,2.605 -6,4c-2.117,1.395 -4.059,2.697 -6,4"/><path d="M15,129c-4.970,3.358 -6.895,4.252 -8,5c-1.105,0.748 -1.392,1.349 -2,2c-0.608,0.651 -1.539,1.353 -2,2c-0.461,0.647 -0.452,1.239 -1,2c-0.548,0.761 -1.653,1.691 -2,2c-0.347,0.309 0.065,-0.004 0,0c-0.065,0.004 -0.606,0.326 -1,1c-0.394,0.674 -0.640,1.701 -1,2c-0.360,0.299 -0.832,-0.131 -1,0c-0.168,0.131 -0.031,0.824 0,1c0.031,0.176 -0.045,-0.164 0,0c0.045,0.164 0.212,0.831 0,1c-0.212,0.169 -0.803,-0.161 -1,0c-0.197,0.161 -0.002,0.813 0,1c0.002,0.187 -0.190,-0.090 0,0c0.190,0.090 0.762,0.549 1,1c0.238,0.451 0.141,0.894 0,1c-0.141,0.106 -0.326,-0.126 0,0c0.326,0.126 1.162,0.609 2,1c0.838,0.391 1.679,0.689 2,1c0.321,0.311 0.122,0.634 1,1c0.878,0.366 2.833,0.775 4,1c1.167,0.225 1.546,0.268 2,0c0.454,-0.268 0.982,-0.845 2,-1c1.018,-0.155 2.526,0.112 5,0c2.474,-0.112 5.915,-0.602 8,-1c2.085,-0.398 2.813,-0.703 4,-1c1.187,-0.297 2.834,-0.585 4,-1c1.166,-0.415 1.852,-0.958 4,-2c2.148,-1.042 5.756,-2.583 8,-4c2.244,-1.417 3.122,-2.708 4,-4"/><path d="M47,140c4.197,-1.940 2.688,-0.790 3,-1c0.312,-0.210 2.445,-1.779 4,-3c1.555,-1.221 2.531,-2.092 4,-3c1.469,-0.908 3.430,-1.851 5,-3c1.570,-1.149 2.749,-2.503 4,-4c1.251,-1.497 2.574,-3.137 4,-4c1.426,-0.863 2.957,-0.949 4,-2c1.043,-1.051 1.600,-3.066 2,-4c0.400,-0.934 0.643,-0.786 1,-1c0.357,-0.214 0.827,-0.788 1,-1c0.173,-0.212 0.049,-0.060 0,0c-0.049,0.060 -0.025,0.030 0,0"/><path d="M82,109c0.000,0.000 0.100,0.100 0.09999999999999432,0.09999999999999432"/><path d="M78,114c0.000,0.000 0.100,0.100 0.09999999999999432,0.09999999999999432"/><path d="M86,76c0.047,0.040 0.093,0.080 0,0c-0.093,-0.080 -0.326,-0.281 -1,0c-0.674,0.281 -1.788,1.042 -3,2c-1.212,0.958 -2.521,2.112 -4,3c-1.479,0.888 -3.129,1.508 -4,2c-0.871,0.492 -0.963,0.855 -1,1c-0.037,0.145 -0.018,0.073 0,0"/><path d="M68,95c0.002,0.735 0.005,1.471 0,2c-0.005,0.529 -0.016,0.853 0,2c0.016,1.147 0.059,3.118 0,4c-0.059,0.882 -0.220,0.676 0,1c0.220,0.324 0.823,1.180 1,2c0.177,0.820 -0.071,1.605 0,2c0.071,0.395 0.461,0.400 1,1c0.539,0.600 1.228,1.793 2,3c0.772,1.207 1.628,2.426 2,3c0.372,0.574 0.259,0.502 1,2c0.741,1.498 2.336,4.565 3,6c0.664,1.435 0.395,1.238 1,2c0.605,0.762 2.082,2.484 3,4c0.918,1.516 1.276,2.826 2,4c0.724,1.174 1.812,2.213 3,4c1.188,1.787 2.475,4.322 4,6c1.525,1.678 3.286,2.500 4,3c0.714,0.500 0.379,0.679 1,1c0.621,0.321 2.198,0.784 4,2c1.802,1.216 3.830,3.187 5,4c1.170,0.813 1.481,0.470 2,1c0.519,0.530 1.247,1.932 3,3c1.753,1.068 4.532,1.802 6,2c1.468,0.198 1.626,-0.139 3,0c1.374,0.139 3.964,0.754 5,1c1.036,0.246 0.518,0.123 0,0"/><path d="M112,110c-0.209,0.236 -0.418,0.472 0,1c0.418,0.528 1.462,1.349 2,2c0.538,0.651 0.570,1.133 1,2c0.430,0.867 1.258,2.120 2,3c0.742,0.880 1.399,1.388 2,2c0.601,0.612 1.147,1.326 2,2c0.853,0.674 2.014,1.306 3,2c0.986,0.694 1.796,1.450 3,2c1.204,0.550 2.804,0.894 4,1c1.196,0.106 1.990,-0.026 3,1c1.010,1.026 2.235,3.211 3,4c0.765,0.789 1.069,0.184 2,1c0.931,0.816 2.488,3.055 3,4c0.512,0.945 -0.020,0.598 0,1c0.020,0.402 0.594,1.553 1,3c0.406,1.447 0.645,3.190 1,4c0.355,0.810 0.827,0.687 1,1c0.173,0.313 0.046,1.063 0,2c-0.046,0.937 -0.012,2.060 0,3c0.012,0.940 0.004,1.697 0,2c-0.004,0.303 -0.002,0.151 0,0"/><path d="M119,53c-0.876,-0.008 -1.753,-0.016 -2,0c-0.247,0.016 0.134,0.057 0,0c-0.134,-0.057 -0.783,-0.211 -1,0c-0.217,0.211 -0.001,0.788 0,1c0.001,0.212 -0.214,0.060 0,0c0.214,-0.060 0.855,-0.029 1,0c0.145,0.029 -0.206,0.055 0,0c0.206,-0.055 0.969,-0.193 2,0c1.031,0.193 2.329,0.716 3,1c0.671,0.284 0.716,0.330 2,1c1.284,0.670 3.808,1.966 5,3c1.192,1.034 1.051,1.807 2,3c0.949,1.193 2.987,2.808 5,5c2.013,2.192 4.000,4.962 6,8c2.000,3.038 4.014,6.345 6,9c1.986,2.655 3.946,4.659 7,9c3.054,4.341 7.203,11.020 9,14c1.797,2.980 1.242,2.260 2,4c0.758,1.740 2.830,5.942 4,9c1.170,3.058 1.437,4.974 2,8c0.563,3.026 1.421,7.161 2,10c0.579,2.839 0.880,4.383 1,5c0.120,0.617 0.060,0.309 0,0"/><path d="M115,61c-0.761,1.107 -1.521,2.215 -2,3c-0.479,0.785 -0.676,1.248 -1,2c-0.324,0.752 -0.775,1.793 -1,3c-0.225,1.207 -0.224,2.578 0,4c0.224,1.422 0.672,2.893 1,5c0.328,2.107 0.538,4.851 1,7c0.462,2.149 1.176,3.703 2,6c0.824,2.297 1.757,5.336 3,8c1.243,2.664 2.797,4.953 4,7c1.203,2.047 2.055,3.852 3,6c0.945,2.148 1.982,4.640 3,7c1.018,2.360 2.015,4.589 3,7c0.985,2.411 1.956,5.003 3,8c1.044,2.997 2.160,6.399 3,8c0.840,1.601 1.405,1.400 2,2c0.595,0.600 1.220,2.002 2,3c0.780,0.998 1.715,1.591 2,2c0.285,0.409 -0.079,0.635 0,1c0.079,0.365 0.602,0.868 1,1c0.398,0.132 0.673,-0.108 1,0c0.327,0.108 0.707,0.565 1,1c0.293,0.435 0.498,0.849 1,1c0.502,0.151 1.300,0.041 2,0c0.700,-0.041 1.301,-0.011 2,0c0.699,0.011 1.497,0.003 2,0c0.503,-0.003 0.712,-0.001 1,0c0.288,0.001 0.654,0.000 1,0c0.346,-0.000 0.673,-0.000 1,0"/><path d="M156,153c1.861,0.000 2.014,0.000 2,0c-0.014,0.000 -0.196,0.000 0,0c0.196,-0.000 0.770,0.000 1,0c0.230,0.000 0.115,0.000 0,0"/><path d="M170,144c0.000,0.000 0.100,0.100 0.09999999999999432,0.09999999999999432"/><path d="M166,48c-0.356,-0.159 -0.712,-0.317 -1,0c-0.288,0.317 -0.509,1.111 -1,2c-0.491,0.889 -1.252,1.873 -2,3c-0.748,1.127 -1.483,2.395 -2,4c-0.517,1.605 -0.817,3.545 -1,5c-0.183,1.455 -0.248,2.423 0,5c0.248,2.577 0.809,6.763 1,9c0.191,2.237 0.013,2.525 1,5c0.987,2.475 3.139,7.136 4,9c0.861,1.864 0.430,0.932 0,0"/><path d="M168,109c-0.060,0.010 -0.119,0.021 0,1c0.119,0.979 0.417,2.928 1,5c0.583,2.072 1.451,4.268 2,5c0.549,0.732 0.780,0.002 1,1c0.220,0.998 0.429,3.726 1,5c0.571,1.274 1.505,1.095 2,2c0.495,0.905 0.552,2.893 1,4c0.448,1.107 1.285,1.333 2,2c0.715,0.667 1.306,1.775 2,3c0.694,1.225 1.491,2.567 2,3c0.509,0.433 0.729,-0.043 1,0c0.271,0.043 0.593,0.604 1,1c0.407,0.396 0.898,0.628 1,1c0.102,0.372 -0.184,0.884 0,1c0.184,0.116 0.838,-0.165 1,0c0.162,0.165 -0.166,0.776 0,1c0.166,0.224 0.828,0.060 1,0c0.172,-0.060 -0.146,-0.016 0,0c0.146,0.016 0.756,0.005 1,0c0.244,-0.005 0.122,-0.002 0,0"/><path d="M170,51c0.061,-0.050 0.121,-0.100 1,-1c0.879,-0.900 2.576,-2.650 4,-4c1.424,-1.350 2.575,-2.300 4,-3c1.425,-0.700 3.125,-1.152 4,-1c0.875,0.152 0.924,0.906 1,1c0.076,0.094 0.180,-0.472 1,0c0.820,0.472 2.356,1.982 3,3c0.644,1.018 0.396,1.544 1,3c0.604,1.456 2.061,3.843 3,6c0.939,2.157 1.361,4.083 2,6c0.639,1.917 1.495,3.824 2,6c0.505,2.176 0.657,4.622 1,7c0.343,2.378 0.875,4.688 1,7c0.125,2.312 -0.159,4.627 0,7c0.159,2.373 0.761,4.803 1,7c0.239,2.197 0.116,4.162 0,6c-0.116,1.838 -0.223,3.550 0,5c0.223,1.450 0.778,2.638 1,4c0.222,1.362 0.111,2.896 0,4c-0.111,1.104 -0.222,1.777 0,3c0.222,1.223 0.778,2.997 1,4c0.222,1.003 0.112,1.236 0,2c-0.112,0.764 -0.226,2.061 0,3c0.226,0.939 0.792,1.522 1,2c0.208,0.478 0.060,0.851 0,1c-0.060,0.149 -0.030,0.075 0,0"/><path d="M190,43c-0.141,0.293 -0.282,0.586 0,1c0.282,0.414 0.987,0.948 2,2c1.013,1.052 2.334,2.621 3,4c0.666,1.379 0.677,2.569 2,4c1.323,1.431 3.959,3.104 5,4c1.041,0.896 0.487,1.015 2,2c1.513,0.985 5.094,2.836 7,4c1.906,1.164 2.137,1.643 3,2c0.863,0.357 2.358,0.594 4,1c1.642,0.406 3.432,0.981 6,1c2.568,0.019 5.915,-0.518 9,-1c3.085,-0.482 5.910,-0.909 8,-1c2.090,-0.091 3.446,0.154 8,-1c4.554,-1.154 12.305,-3.708 16,-5c3.695,-1.292 3.332,-1.322 5,-2c1.668,-0.678 5.365,-2.003 10,-4c4.635,-1.997 10.208,-4.665 13,-6c2.792,-1.335 2.803,-1.339 4,-2c1.197,-0.661 3.578,-1.981 6,-3c2.422,-1.019 4.884,-1.737 6,-2c1.116,-0.263 0.887,-0.070 1,0c0.113,0.070 0.569,0.019 1,0c0.431,-0.019 0.837,-0.005 1,0c0.163,0.005 0.081,0.003 0,0"/><path d="M321,43c-0.228,0.113 -0.455,0.225 0,0c0.455,-0.225 1.593,-0.788 2,-1c0.407,-0.212 0.085,-0.074 1,0c0.915,0.074 3.069,0.083 4,0c0.931,-0.083 0.640,-0.260 1,0c0.360,0.260 1.370,0.955 2,1c0.630,0.045 0.879,-0.561 2,0c1.121,0.561 3.114,2.290 4,3c0.886,0.710 0.667,0.400 1,1c0.333,0.600 1.220,2.108 2,3c0.780,0.892 1.452,1.168 2,2c0.548,0.832 0.971,2.219 1,4c0.029,1.781 -0.337,3.956 -1,6c-0.663,2.044 -1.625,3.956 -2,5c-0.375,1.044 -0.165,1.220 -1,3c-0.835,1.780 -2.716,5.164 -4,7c-1.284,1.836 -1.969,2.125 -3,3c-1.031,0.875 -2.406,2.336 -5,4c-2.594,1.664 -6.407,3.530 -9,5c-2.593,1.470 -3.966,2.543 -5,3c-1.034,0.457 -1.729,0.298 -4,1c-2.271,0.702 -6.119,2.264 -8,3c-1.881,0.736 -1.794,0.645 -3,1c-1.206,0.355 -3.705,1.157 -6,2c-2.295,0.843 -4.387,1.727 -6,2c-1.613,0.273 -2.747,-0.065 -4,0c-1.253,0.065 -2.627,0.532 -4,1"/><path d="M278,102c-5.667,1.556 -2.333,0.444 -1,0c1.333,-0.444 0.667,-0.222 0,0"/><path d="M290,69c-0.755,0.127 -1.510,0.254 -2,1c-0.490,0.746 -0.716,2.113 -1,3c-0.284,0.887 -0.626,1.296 -1,2c-0.374,0.704 -0.781,1.704 -1,3c-0.219,1.296 -0.251,2.887 0,4c0.251,1.113 0.786,1.746 1,2c0.214,0.254 0.107,0.127 0,0"/><path d="M295,97c-0.534,0.209 -1.069,0.418 -2,1c-0.931,0.582 -2.259,1.537 -3,2c-0.741,0.463 -0.894,0.435 -2,1c-1.106,0.565 -3.164,1.724 -4,2c-0.836,0.276 -0.451,-0.333 -1,0c-0.549,0.333 -2.033,1.606 -3,2c-0.967,0.394 -1.418,-0.091 -2,0c-0.582,0.091 -1.296,0.756 -2,1c-0.704,0.244 -1.397,0.065 -2,0c-0.603,-0.065 -1.115,-0.017 -2,0c-0.885,0.017 -2.145,0.005 -3,0c-0.855,-0.005 -1.307,-0.001 -2,0c-0.693,0.001 -1.627,0.000 -2,0c-0.373,-0.000 -0.187,-0.000 0,0"/><path d="M256,104c-0.756,-0.113 -1.512,-0.226 -2,0c-0.488,0.226 -0.709,0.793 -1,1c-0.291,0.207 -0.652,0.056 -1,0c-0.348,-0.056 -0.684,-0.016 -1,0c-0.316,0.016 -0.613,0.007 -1,0c-0.387,-0.007 -0.863,-0.012 -1,0c-0.137,0.012 0.065,0.041 0,0c-0.065,-0.041 -0.398,-0.152 -1,0c-0.602,0.152 -1.475,0.566 -2,1c-0.525,0.434 -0.703,0.889 -1,1c-0.297,0.111 -0.713,-0.120 -1,0c-0.287,0.120 -0.443,0.591 -1,1c-0.557,0.409 -1.514,0.756 -2,1c-0.486,0.244 -0.501,0.385 -1,1c-0.499,0.615 -1.480,1.704 -2,2c-0.520,0.296 -0.577,-0.202 -1,0c-0.423,0.202 -1.211,1.105 -2,2c-0.789,0.895 -1.580,1.783 -2,2c-0.420,0.217 -0.469,-0.237 -1,0c-0.531,0.237 -1.544,1.167 -2,2c-0.456,0.833 -0.353,1.570 -1,2c-0.647,0.430 -2.042,0.551 -3,1c-0.958,0.449 -1.479,1.224 -2,2"/><path d="M224,123c-3.595,2.585 -1.583,0.549 -1,0c0.583,-0.549 -0.263,0.389 -1,1c-0.737,0.611 -1.363,0.896 -2,1c-0.637,0.104 -1.283,0.028 -2,0c-0.717,-0.028 -1.505,-0.007 -2,0c-0.495,0.007 -0.696,0.002 -1,0c-0.304,-0.002 -0.711,-0.001 -1,0c-0.289,0.001 -0.458,0.000 -1,0c-0.542,-0.000 -1.456,-0.001 -2,0c-0.544,0.001 -0.719,0.004 -1,0c-0.281,-0.004 -0.667,-0.015 -1,0c-0.333,0.015 -0.611,0.056 -1,0c-0.389,-0.056 -0.889,-0.207 -1,0c-0.111,0.207 0.166,0.774 0,1c-0.166,0.226 -0.777,0.112 -1,0c-0.223,-0.112 -0.060,-0.223 0,0c0.060,0.223 0.017,0.778 0,1c-0.017,0.222 -0.009,0.111 0,0"/><path d="M134,107c1.141,-1.066 2.281,-2.132 3,-3c0.719,-0.868 1.016,-1.539 2,-2c0.984,-0.461 2.656,-0.711 4,-1c1.344,-0.289 2.362,-0.616 3,-1c0.638,-0.384 0.897,-0.824 1,-1c0.103,-0.176 0.052,-0.088 0,0"/><path d="M176,91c-0.394,-0.226 -0.789,-0.453 0,-1c0.789,-0.547 2.761,-1.415 5,-2c2.239,-0.585 4.744,-0.889 6,-1c1.256,-0.111 1.265,-0.030 2,0c0.735,0.030 2.198,0.008 3,0c0.802,-0.008 0.943,-0.002 1,0c0.057,0.002 0.028,0.001 0,0"/><path d="M114,123c-0.631,-0.560 -1.262,-1.119 -2,-1c-0.738,0.119 -1.583,0.917 -4,2c-2.417,1.083 -6.405,2.452 -8,3c-1.595,0.548 -0.798,0.274 0,0"/><path d="M363,163c-0.540,0.089 -1.081,0.179 -2,0c-0.919,-0.179 -2.217,-0.625 -3,-1c-0.783,-0.375 -1.051,-0.677 -2,-1c-0.949,-0.323 -2.578,-0.667 -4,-1c-1.422,-0.333 -2.638,-0.656 -4,-1c-1.362,-0.344 -2.871,-0.708 -4,-1c-1.129,-0.292 -1.878,-0.512 -3,-1c-1.122,-0.488 -2.616,-1.243 -4,-2c-1.384,-0.757 -2.657,-1.517 -4,-2c-1.343,-0.483 -2.755,-0.688 -4,-1c-1.245,-0.312 -2.325,-0.732 -3,-1c-0.675,-0.268 -0.947,-0.386 -2,-1c-1.053,-0.614 -2.887,-1.726 -4,-2c-1.113,-0.274 -1.506,0.289 -2,0c-0.494,-0.289 -1.091,-1.429 -2,-2c-0.909,-0.571 -2.130,-0.572 -3,-1c-0.870,-0.428 -1.388,-1.283 -2,-2c-0.612,-0.717 -1.318,-1.296 -2,-2c-0.682,-0.704 -1.340,-1.535 -2,-2c-0.660,-0.465 -1.322,-0.566 -2,-1c-0.678,-0.434 -1.372,-1.202 -2,-2c-0.628,-0.798 -1.189,-1.626 -2,-2c-0.811,-0.374 -1.872,-0.293 -3,-1c-1.128,-0.707 -2.322,-2.202 -3,-3c-0.678,-0.798 -0.839,-0.899 -1,-1"/><path d="M294,129c-3.356,-2.875 -2.247,-2.062 -2,-2c0.247,0.062 -0.366,-0.629 -1,-1c-0.634,-0.371 -1.287,-0.424 -2,-1c-0.713,-0.576 -1.487,-1.675 -2,-2c-0.513,-0.325 -0.767,0.123 -1,0c-0.233,-0.123 -0.445,-0.818 -1,-1c-0.555,-0.182 -1.453,0.147 -2,0c-0.547,-0.147 -0.742,-0.771 -1,-1c-0.258,-0.229 -0.580,-0.063 -1,0c-0.420,0.063 -0.939,0.024 -1,0c-0.061,-0.024 0.335,-0.033 0,0c-0.335,0.033 -1.403,0.109 -2,0c-0.597,-0.109 -0.724,-0.403 -1,0c-0.276,0.403 -0.700,1.504 -1,2c-0.300,0.496 -0.477,0.388 -1,1c-0.523,0.612 -1.394,1.943 -2,3c-0.606,1.057 -0.948,1.839 -1,2c-0.052,0.161 0.185,-0.301 0,0c-0.185,0.301 -0.794,1.364 -1,2c-0.206,0.636 -0.011,0.844 0,1c0.011,0.156 -0.162,0.260 0,1c0.162,0.740 0.657,2.118 1,3c0.343,0.882 0.532,1.270 1,2c0.468,0.730 1.214,1.801 2,3c0.786,1.199 1.610,2.524 2,3c0.390,0.476 0.345,0.103 1,1c0.655,0.897 2.010,3.064 3,4c0.990,0.936 1.616,0.643 2,1c0.384,0.357 0.526,1.365 1,2c0.474,0.635 1.278,0.896 2,1c0.722,0.104 1.361,0.052 2,0"/><path d="M288,153c1.824,1.558 0.885,0.952 1,1c0.115,0.048 1.284,0.749 2,1c0.716,0.251 0.981,0.053 1,0c0.019,-0.053 -0.206,0.040 0,0c0.206,-0.040 0.842,-0.214 1,0c0.158,0.214 -0.164,0.815 0,1c0.164,0.185 0.814,-0.047 1,0c0.186,0.047 -0.091,0.371 0,1c0.091,0.629 0.549,1.562 1,2c0.451,0.438 0.895,0.383 1,1c0.105,0.617 -0.128,1.908 0,3c0.128,1.092 0.616,1.984 1,3c0.384,1.016 0.664,2.155 1,3c0.336,0.845 0.726,1.397 1,2c0.274,0.603 0.430,1.257 1,2c0.570,0.743 1.554,1.576 2,2c0.446,0.424 0.353,0.440 1,1c0.647,0.560 2.034,1.666 3,2c0.966,0.334 1.513,-0.103 2,0c0.487,0.103 0.915,0.747 1,1c0.085,0.253 -0.174,0.113 0,0c0.174,-0.113 0.780,-0.201 1,0c0.220,0.201 0.055,0.691 0,1c-0.055,0.309 0.001,0.438 0,1c-0.001,0.562 -0.058,1.557 0,2c0.058,0.443 0.232,0.335 0,1c-0.232,0.665 -0.870,2.102 -1,3c-0.130,0.898 0.249,1.257 0,2c-0.249,0.743 -1.124,1.872 -2,3"/><path d="M307,192c-0.453,2.595 -0.584,2.583 -1,3c-0.416,0.417 -1.117,1.264 -2,2c-0.883,0.736 -1.948,1.360 -3,2c-1.052,0.640 -2.089,1.297 -4,2c-1.911,0.703 -4.694,1.452 -6,2c-1.306,0.548 -1.136,0.893 -2,1c-0.864,0.107 -2.763,-0.026 -4,0c-1.237,0.026 -1.811,0.210 -3,0c-1.189,-0.210 -2.994,-0.816 -5,-1c-2.006,-0.184 -4.213,0.052 -6,0c-1.787,-0.052 -3.155,-0.391 -5,-1c-1.845,-0.609 -4.166,-1.487 -6,-2c-1.834,-0.513 -3.182,-0.662 -5,-1c-1.818,-0.338 -4.108,-0.864 -6,-1c-1.892,-0.136 -3.388,0.118 -5,0c-1.612,-0.118 -3.342,-0.610 -5,-1c-1.658,-0.390 -3.245,-0.679 -5,-1c-1.755,-0.321 -3.679,-0.673 -5,-1c-1.321,-0.327 -2.040,-0.627 -3,-1c-0.960,-0.373 -2.163,-0.818 -3,-1c-0.837,-0.182 -1.310,-0.101 -2,0c-0.690,0.101 -1.596,0.223 -3,0c-1.404,-0.223 -3.304,-0.792 -5,-1c-1.696,-0.208 -3.187,-0.056 -4,0c-0.813,0.056 -0.946,0.016 -1,0c-0.054,-0.016 -0.027,-0.008 0,0"/><path d="M195,193c-1.177,0.748 -2.354,1.496 -3,2c-0.646,0.504 -0.761,0.764 -1,1c-0.239,0.236 -0.600,0.446 -1,1c-0.400,0.554 -0.837,1.451 -1,2c-0.163,0.549 -0.052,0.751 0,1c0.052,0.249 0.047,0.545 0,1c-0.047,0.455 -0.134,1.071 0,2c0.134,0.929 0.490,2.173 1,3c0.510,0.827 1.174,1.237 2,2c0.826,0.763 1.813,1.880 3,3c1.187,1.120 2.573,2.244 4,3c1.427,0.756 2.895,1.144 5,2c2.105,0.856 4.848,2.180 7,3c2.152,0.820 3.713,1.138 7,2c3.287,0.862 8.298,2.270 11,3c2.702,0.730 3.094,0.784 5,1c1.906,0.216 5.325,0.594 8,1c2.675,0.406 4.605,0.840 7,1c2.395,0.160 5.256,0.046 8,0c2.744,-0.046 5.372,-0.023 8,0"/><path d="M265,227c6.131,0.354 5.959,0.238 7,0c1.041,-0.238 3.295,-0.600 6,-1c2.705,-0.400 5.862,-0.839 8,-1c2.138,-0.161 3.256,-0.043 4,0c0.744,0.043 1.113,0.012 2,0c0.887,-0.012 2.293,-0.004 3,0c0.707,0.004 0.715,0.005 1,0c0.285,-0.005 0.846,-0.015 1,0c0.154,0.015 -0.098,0.056 0,0c0.098,-0.056 0.547,-0.207 1,0c0.453,0.207 0.910,0.774 1,1c0.090,0.226 -0.186,0.113 0,0c0.186,-0.113 0.834,-0.226 1,0c0.166,0.226 -0.152,0.793 0,1c0.152,0.207 0.773,0.056 1,0c0.227,-0.056 0.061,-0.015 0,0c-0.061,0.015 -0.017,0.004 0,0c0.017,-0.004 0.009,-0.002 0,0"/><path d="M349,154c-1.074,0.644 -2.148,1.288 -3,2c-0.852,0.712 -1.484,1.491 -2,2c-0.516,0.509 -0.918,0.746 -2,2c-1.082,1.254 -2.846,3.524 -4,5c-1.154,1.476 -1.698,2.158 -2,3c-0.302,0.842 -0.363,1.845 -1,3c-0.637,1.155 -1.850,2.461 -3,4c-1.150,1.539 -2.237,3.310 -3,5c-0.763,1.690 -1.202,3.299 -2,5c-0.798,1.701 -1.954,3.493 -3,5c-1.046,1.507 -1.982,2.728 -3,4c-1.018,1.272 -2.119,2.593 -3,4c-0.881,1.407 -1.543,2.899 -2,4c-0.457,1.101 -0.711,1.810 -1,3c-0.289,1.190 -0.613,2.861 -1,4c-0.387,1.139 -0.836,1.747 -1,3c-0.164,1.253 -0.044,3.152 0,4c0.044,0.848 0.011,0.646 0,1c-0.011,0.354 0.001,1.266 0,2c-0.001,0.734 -0.015,1.292 0,2c0.015,0.708 0.060,1.566 0,2c-0.060,0.434 -0.226,0.442 0,1c0.226,0.558 0.844,1.665 1,2c0.156,0.335 -0.150,-0.102 0,0c0.150,0.102 0.757,0.743 1,1c0.243,0.257 0.121,0.128 0,0"/><path d="M359,164c0.189,-0.425 0.377,-0.850 1,0c0.623,0.850 1.680,2.976 2,4c0.320,1.024 -0.095,0.946 0,1c0.095,0.054 0.702,0.239 1,1c0.298,0.761 0.287,2.098 0,3c-0.287,0.902 -0.850,1.370 -1,2c-0.150,0.630 0.114,1.421 0,2c-0.114,0.579 -0.607,0.945 -1,2c-0.393,1.055 -0.687,2.797 -1,4c-0.313,1.203 -0.647,1.865 -1,3c-0.353,1.135 -0.726,2.742 -1,4c-0.274,1.258 -0.449,2.165 -1,4c-0.551,1.835 -1.476,4.596 -2,6c-0.524,1.404 -0.645,1.452 -1,2c-0.355,0.548 -0.945,1.598 -2,3c-1.055,1.402 -2.577,3.157 -3,4c-0.423,0.843 0.253,0.774 0,1c-0.253,0.226 -1.434,0.747 -2,1c-0.566,0.253 -0.515,0.238 -1,1c-0.485,0.762 -1.505,2.300 -2,3c-0.495,0.700 -0.465,0.562 -1,1c-0.535,0.438 -1.636,1.452 -2,2c-0.364,0.548 0.007,0.630 0,1c-0.007,0.370 -0.394,1.027 -1,2c-0.606,0.973 -1.432,2.262 -2,3c-0.568,0.738 -0.876,0.925 -1,1c-0.124,0.075 -0.062,0.037 0,0"/><path d="M333,231c0.000,0.000 0.100,0.100 0.10000000000002274,0.09999999999999432"/><path d="M322,211c0.276,0.074 0.553,0.148 1,0c0.447,-0.148 1.066,-0.519 2,-1c0.934,-0.481 2.184,-1.071 3,-1c0.816,0.071 1.198,0.802 2,1c0.802,0.198 2.024,-0.139 3,0c0.976,0.139 1.708,0.754 2,1c0.292,0.246 0.146,0.123 0,0"/><path d="M377,171c-0.443,-0.154 -0.885,-0.307 -2,1c-1.115,1.307 -2.902,4.075 -4,6c-1.098,1.925 -1.507,3.008 -3,5c-1.493,1.992 -4.069,4.892 -5,6c-0.931,1.108 -0.217,0.423 -1,2c-0.783,1.577 -3.062,5.415 -4,7c-0.938,1.585 -0.535,0.915 -1,2c-0.465,1.085 -1.799,3.923 -3,6c-1.201,2.077 -2.269,3.391 -3,5c-0.731,1.609 -1.124,3.511 -2,6c-0.876,2.489 -2.234,5.564 -3,7c-0.766,1.436 -0.940,1.233 -1,3c-0.060,1.767 -0.005,5.504 0,7c0.005,1.496 -0.040,0.752 0,1c0.040,0.248 0.165,1.490 1,3c0.835,1.510 2.382,3.289 3,4c0.618,0.711 0.309,0.356 0,0"/><path d="M385,171c-0.168,-0.008 -0.336,-0.016 0,1c0.336,1.016 1.177,3.054 2,5c0.823,1.946 1.628,3.798 2,5c0.372,1.202 0.309,1.752 0,3c-0.309,1.248 -0.865,3.193 -1,5c-0.135,1.807 0.151,3.475 -1,7c-1.151,3.525 -3.738,8.906 -5,11c-1.262,2.094 -1.201,0.901 -3,3c-1.799,2.099 -5.460,7.491 -8,11c-2.540,3.509 -3.959,5.136 -5,6c-1.041,0.864 -1.704,0.963 -3,2c-1.296,1.037 -3.224,3.010 -4,4c-0.776,0.990 -0.401,0.997 0,1c0.401,0.003 0.829,0.001 1,0c0.171,-0.001 0.086,-0.000 0,0"/><path d="M389,204c-0.388,0.172 -0.776,0.344 -1,1c-0.224,0.656 -0.284,1.797 -1,3c-0.716,1.203 -2.086,2.469 -3,4c-0.914,1.531 -1.370,3.328 -2,5c-0.630,1.672 -1.434,3.217 -2,5c-0.566,1.783 -0.895,3.802 -1,5c-0.105,1.198 0.014,1.576 0,3c-0.014,1.424 -0.160,3.895 0,5c0.160,1.105 0.625,0.843 1,1c0.375,0.157 0.661,0.732 1,1c0.339,0.268 0.732,0.230 1,0c0.268,-0.230 0.412,-0.653 1,-1c0.588,-0.347 1.621,-0.618 3,-2c1.379,-1.382 3.105,-3.875 4,-5c0.895,-1.125 0.961,-0.883 2,-2c1.039,-1.117 3.053,-3.592 4,-5c0.947,-1.408 0.827,-1.750 1,-2c0.173,-0.250 0.638,-0.410 1,-1c0.362,-0.590 0.622,-1.612 1,-2c0.378,-0.388 0.875,-0.143 1,0c0.125,0.143 -0.120,0.185 0,0c0.120,-0.185 0.607,-0.597 1,-1c0.393,-0.403 0.693,-0.799 1,-1c0.307,-0.201 0.621,-0.208 1,-1c0.379,-0.792 0.823,-2.369 1,-3c0.177,-0.631 0.089,-0.315 0,0"/><path d="M84,78c0.114,-0.340 0.229,-0.681 1,-1c0.771,-0.319 2.199,-0.617 3,-1c0.801,-0.383 0.977,-0.850 2,-1c1.023,-0.150 2.894,0.016 4,0c1.106,-0.016 1.445,-0.214 2,0c0.555,0.214 1.324,0.841 2,1c0.676,0.159 1.259,-0.149 2,0c0.741,0.149 1.640,0.757 2,1c0.360,0.243 0.180,0.122 0,0"/><path d="M124,65c-0.179,0.178 -0.357,0.356 0,0c0.357,-0.356 1.250,-1.245 2,-2c0.750,-0.755 1.357,-1.376 2,-2c0.643,-0.624 1.322,-1.251 2,-2c0.678,-0.749 1.355,-1.620 2,-2c0.645,-0.380 1.257,-0.271 2,0c0.743,0.271 1.618,0.702 2,1c0.382,0.298 0.272,0.462 1,1c0.728,0.538 2.296,1.451 3,2c0.704,0.549 0.545,0.736 1,1c0.455,0.264 1.523,0.607 2,1c0.477,0.393 0.363,0.837 1,1c0.637,0.163 2.027,0.044 3,0c0.973,-0.044 1.531,-0.012 2,0c0.469,0.012 0.848,0.003 1,0c0.152,-0.003 0.076,-0.002 0,0"/><path d="M149,72c0.262,-0.083 0.524,-0.167 2,0c1.476,0.167 4.167,0.583 7,1c2.833,0.417 5.810,0.833 7,1c1.190,0.167 0.595,0.083 0,0"/></g>
<g fill="none" stroke="rgb(109,110,112)" stroke-width="4" stroke-linecap="round" stroke-linejoin="round"><path d="M138,69c0.036,-0.132 0.072,-0.264 1,0c0.928,0.264 2.748,0.925 5,2c2.252,1.075 4.935,2.564 7,4c2.065,1.436 3.511,2.820 5,4c1.489,1.180 3.023,2.155 4,3c0.977,0.845 1.399,1.558 2,2c0.601,0.442 1.382,0.611 2,1c0.618,0.389 1.073,0.997 1,1c-0.073,0.003 -0.675,-0.601 -1,-1c-0.325,-0.399 -0.374,-0.594 -1,-1c-0.626,-0.406 -1.827,-1.024 -3,-2c-1.173,-0.976 -2.316,-2.312 -4,-4c-1.684,-1.688 -3.909,-3.729 -5,-5c-1.091,-1.271 -1.049,-1.772 -1,-2c0.049,-0.228 0.104,-0.181 0,0c-0.104,0.181 -0.367,0.497 0,1c0.367,0.503 1.365,1.193 3,4c1.635,2.807 3.906,7.729 5,10c1.094,2.271 1.011,1.890 2,3c0.989,1.110 3.051,3.711 4,5c0.949,1.289 0.786,1.265 1,1c0.214,-0.265 0.805,-0.771 1,-1c0.195,-0.229 -0.005,-0.180 0,-1c0.005,-0.820 0.214,-2.510 0,-5c-0.214,-2.490 -0.851,-5.781 -1,-8c-0.149,-2.219 0.191,-3.367 0,-4c-0.191,-0.633 -0.912,-0.752 -1,-1c-0.088,-0.248 0.456,-0.624 1,-1"/><path d="M165,74c0.940,-2.143 2.792,2.500 4,5c1.208,2.500 1.774,2.857 2,3c0.226,0.143 0.113,0.071 0,0"/><path d="M388,179c0.449,0.026 0.898,0.052 1,0c0.102,-0.052 -0.143,-0.182 2,0c2.143,0.182 6.675,0.675 9,1c2.325,0.325 2.445,0.484 3,1c0.555,0.516 1.546,1.391 3,3c1.454,1.609 3.371,3.951 4,5c0.629,1.049 -0.031,0.804 0,2c0.031,1.196 0.755,3.834 1,5c0.245,1.166 0.013,0.859 0,1c-0.013,0.141 0.193,0.731 0,1c-0.193,0.269 -0.784,0.216 -1,0c-0.216,-0.216 -0.058,-0.597 0,-1c0.058,-0.403 0.017,-0.830 0,-1c-0.017,-0.170 -0.008,-0.085 0,0"/></g>
<g fill="none" stroke="rgb(0,0,0)" stroke-width="6" stroke-linecap="round" stroke-linejoin="round"><path d="M5,124c0.547,-0.341 1.094,-0.682 2,-1c0.906,-0.318 2.172,-0.614 3,-1c0.828,-0.386 1.217,-0.861 2,-1c0.783,-0.139 1.960,0.059 3,0c1.040,-0.059 1.945,-0.373 3,0c1.055,0.373 2.261,1.434 3,2c0.739,0.566 1.010,0.637 2,1c0.990,0.363 2.699,1.020 4,3c1.301,1.980 2.194,5.285 3,7c0.806,1.715 1.523,1.840 2,3c0.477,1.160 0.712,3.354 1,5c0.288,1.646 0.627,2.742 1,4c0.373,1.258 0.780,2.677 1,4c0.220,1.323 0.251,2.548 0,3c-0.251,0.452 -0.786,0.129 -1,0c-0.214,-0.129 -0.107,-0.065 0,0"/><path d="M11,130c0.096,0.072 0.192,0.143 1,0c0.808,-0.143 2.327,-0.502 4,0c1.673,0.502 3.500,1.865 5,3c1.500,1.135 2.671,2.042 4,3c1.329,0.958 2.815,1.967 4,3c1.185,1.033 2.070,2.091 3,3c0.930,0.909 1.904,1.668 2,3c0.096,1.332 -0.687,3.238 -1,4c-0.313,0.762 -0.157,0.381 0,0"/><path d="M136,139c-0.026,-0.332 -0.053,-0.663 0,-1c0.053,-0.337 0.185,-0.679 0,-1c-0.185,-0.321 -0.688,-0.620 -1,-1c-0.312,-0.380 -0.432,-0.842 -1,-1c-0.568,-0.158 -1.582,-0.011 -3,0c-1.418,0.011 -3.239,-0.113 -5,0c-1.761,0.113 -3.463,0.462 -5,1c-1.537,0.538 -2.908,1.266 -4,2c-1.092,0.734 -1.906,1.473 -3,2c-1.094,0.527 -2.468,0.842 -4,2c-1.532,1.158 -3.220,3.158 -4,4c-0.780,0.842 -0.650,0.527 -1,1c-0.350,0.473 -1.180,1.734 -2,3c-0.820,1.266 -1.631,2.535 -2,3c-0.369,0.465 -0.295,0.125 0,0c0.295,-0.125 0.810,-0.034 1,0c0.190,0.034 0.054,0.010 0,0c-0.054,-0.010 -0.027,-0.005 0,0"/><path d="M143,134c0.030,-0.374 0.060,-0.749 0,-1c-0.060,-0.251 -0.209,-0.379 0,-1c0.209,-0.621 0.775,-1.736 1,-2c0.225,-0.264 0.109,0.322 1,0c0.891,-0.322 2.791,-1.551 5,-2c2.209,-0.449 4.728,-0.118 6,0c1.272,0.118 1.296,0.021 2,0c0.704,-0.021 2.087,0.033 3,0c0.913,-0.033 1.355,-0.152 2,0c0.645,0.152 1.492,0.577 2,1c0.508,0.423 0.675,0.845 1,1c0.325,0.155 0.807,0.044 1,0c0.193,-0.044 0.096,-0.022 0,0"/><path d="M178,122c0.166,-0.364 0.331,-0.728 1,-1c0.669,-0.272 1.841,-0.451 3,-1c1.159,-0.549 2.303,-1.469 3,-2c0.697,-0.531 0.945,-0.675 2,-1c1.055,-0.325 2.915,-0.831 4,-1c1.085,-0.169 1.394,0.001 2,0c0.606,-0.001 1.508,-0.171 2,0c0.492,0.171 0.575,0.685 1,1c0.425,0.315 1.191,0.431 2,1c0.809,0.569 1.660,1.591 2,2c0.340,0.409 0.170,0.204 0,0"/><path d="M292,46c-0.446,-0.031 -0.892,-0.063 0,1c0.892,1.063 3.123,3.220 4,4c0.877,0.780 0.402,0.184 1,1c0.598,0.816 2.270,3.045 3,5c0.730,1.955 0.519,3.636 1,7c0.481,3.364 1.656,8.411 2,12c0.344,3.589 -0.143,5.718 0,7c0.143,1.282 0.915,1.715 1,3c0.085,1.285 -0.515,3.423 -1,5c-0.485,1.577 -0.853,2.593 -1,3c-0.147,0.407 -0.074,0.203 0,0"/><path d="M307,48c0.160,0.393 0.321,0.787 1,2c0.679,1.213 1.878,3.247 3,5c1.122,1.753 2.168,3.227 3,5c0.832,1.773 1.449,3.845 2,6c0.551,2.155 1.037,4.392 1,6c-0.037,1.608 -0.598,2.586 -1,5c-0.402,2.414 -0.647,6.265 -1,9c-0.353,2.735 -0.815,4.353 -1,5c-0.185,0.647 -0.092,0.324 0,0"/><path d="M205,190c0.157,0.022 0.314,0.043 1,0c0.686,-0.043 1.900,-0.151 3,0c1.100,0.151 2.087,0.562 4,2c1.913,1.438 4.754,3.903 6,5c1.246,1.097 0.899,0.827 1,2c0.101,1.173 0.650,3.790 1,5c0.350,1.210 0.500,1.015 0,3c-0.500,1.985 -1.649,6.151 -2,8c-0.351,1.849 0.098,1.383 0,2c-0.098,0.617 -0.742,2.319 -1,3c-0.258,0.681 -0.129,0.340 0,0"/><path d="M302,132c0.798,0.908 1.596,1.816 2,2c0.404,0.184 0.413,-0.355 1,1c0.587,1.355 1.751,4.605 2,6c0.249,1.395 -0.417,0.935 -1,2c-0.583,1.065 -1.084,3.657 -2,6c-0.916,2.343 -2.247,4.439 -3,6c-0.753,1.561 -0.930,2.589 -1,3c-0.070,0.411 -0.035,0.206 0,0"/><path d="M326,211c-0.347,-0.074 -0.694,-0.147 0,0c0.694,0.147 2.428,0.516 4,1c1.572,0.484 2.982,1.083 5,2c2.018,0.917 4.644,2.153 6,3c1.356,0.847 1.442,1.305 2,2c0.558,0.695 1.588,1.627 2,2c0.412,0.373 0.206,0.186 0,0"/><path d="M368,220c-0.295,-0.099 -0.590,-0.198 0,0c0.590,0.198 2.065,0.692 3,1c0.935,0.308 1.329,0.429 2,1c0.671,0.571 1.620,1.592 2,2c0.380,0.408 0.190,0.204 0,0"/></g>
<g fill="none" stroke="rgb(109,110,112)" stroke-width="4" stroke-linecap="round" stroke-linejoin="round"><path d="M42,145c0.171,0.014 0.343,0.028 1,1c0.657,0.972 1.801,2.900 3,6c1.199,3.100 2.454,7.370 4,12c1.546,4.630 3.384,9.620 4,12c0.616,2.380 0.009,2.149 1,7c0.991,4.851 3.579,14.783 5,22c1.421,7.217 1.673,11.718 2,18c0.327,6.282 0.727,14.344 1,20c0.273,5.656 0.420,8.908 1,13c0.580,4.092 1.594,9.026 2,11c0.406,1.974 0.203,0.987 0,0"/><path d="M123,141c-0.083,0.252 -0.166,0.504 0,1c0.166,0.496 0.580,1.234 1,2c0.420,0.766 0.845,1.558 1,2c0.155,0.442 0.042,0.534 0,1c-0.042,0.466 -0.011,1.305 0,2c0.011,0.695 0.003,1.247 0,2c-0.003,0.753 -0.001,1.708 0,3c0.001,1.292 0.000,2.923 0,4c-0.000,1.077 -0.000,1.602 0,3c0.000,1.398 0.000,3.670 0,5c-0.000,1.330 -0.000,1.717 0,3c0.000,1.283 0.000,3.463 0,6c-0.000,2.537 -0.000,5.431 0,8c0.000,2.569 0.000,4.813 0,9c-0.000,4.187 -0.000,10.315 0,16c0.000,5.685 0.000,10.926 0,14c-0.000,3.074 -0.000,3.982 0,7c0.000,3.018 0.000,8.148 0,13c-0.000,4.852 -0.000,9.426 0,14"/><path d="M125,256c-0.054,20.152 -1.190,13.030 -2,13c-0.810,-0.030 -1.295,7.030 -2,12c-0.705,4.970 -1.630,7.848 -2,9c-0.370,1.152 -0.185,0.576 0,0"/><path d="M195,130c-0.108,-0.619 -0.216,-1.239 0,1c0.216,2.239 0.756,7.335 1,9c0.244,1.665 0.192,-0.103 0,3c-0.192,3.103 -0.522,11.076 -1,15c-0.478,3.924 -1.102,3.800 -2,6c-0.898,2.200 -2.069,6.724 -3,11c-0.931,4.276 -1.624,8.304 -3,13c-1.376,4.696 -3.437,10.060 -5,15c-1.563,4.940 -2.628,9.456 -4,14c-1.372,4.544 -3.051,9.115 -4,14c-0.949,4.885 -1.168,10.083 -2,15c-0.832,4.917 -2.275,9.553 -3,14c-0.725,4.447 -0.730,8.705 -1,13c-0.270,4.295 -0.804,8.626 -1,12c-0.196,3.374 -0.052,5.791 0,7c0.052,1.209 0.014,1.210 0,2c-0.014,0.790 -0.004,2.369 0,3c0.004,0.631 0.002,0.316 0,0"/><path d="M289,119c0.136,-0.083 0.271,-0.165 1,0c0.729,0.165 2.051,0.579 3,2c0.949,1.421 1.526,3.850 2,6c0.474,2.150 0.845,4.021 1,6c0.155,1.979 0.094,4.066 0,6c-0.094,1.934 -0.220,3.716 0,5c0.220,1.284 0.787,2.069 1,3c0.213,0.931 0.074,2.009 0,3c-0.074,0.991 -0.082,1.894 0,3c0.082,1.106 0.253,2.413 -1,5c-1.253,2.587 -3.929,6.453 -5,8c-1.071,1.547 -0.535,0.773 0,0"/><path d="M288,180c-0.331,-0.181 -0.662,-0.361 -1,0c-0.338,0.361 -0.682,1.264 -1,2c-0.318,0.736 -0.611,1.305 -1,2c-0.389,0.695 -0.875,1.516 -1,2c-0.125,0.484 0.111,0.631 0,1c-0.111,0.369 -0.569,0.959 -1,2c-0.431,1.041 -0.833,2.531 -1,3c-0.167,0.469 -0.097,-0.085 0,0c0.097,0.085 0.222,0.807 0,1c-0.222,0.193 -0.792,-0.144 -1,0c-0.208,0.144 -0.056,0.771 0,1c0.056,0.229 0.015,0.062 0,0c-0.015,-0.062 -0.004,-0.018 0,0c0.004,0.018 0.002,0.009 0,0"/><path d="M223,216c0.006,0.478 0.013,0.955 0,1c-0.013,0.045 -0.044,-0.343 0,0c0.044,0.343 0.163,1.415 0,3c-0.163,1.585 -0.610,3.682 -1,6c-0.390,2.318 -0.725,4.859 -1,8c-0.275,3.141 -0.490,6.884 -1,11c-0.510,4.116 -1.315,8.604 -2,13c-0.685,4.396 -1.251,8.699 -2,13c-0.749,4.301 -1.681,8.598 -3,13c-1.319,4.402 -3.025,8.907 -4,13c-0.975,4.093 -1.217,7.773 -2,11c-0.783,3.227 -2.105,6.000 -3,9c-0.895,3.000 -1.364,6.227 -2,9c-0.636,2.773 -1.441,5.093 -2,7c-0.559,1.907 -0.874,3.402 -1,4c-0.126,0.598 -0.063,0.299 0,0"/><path d="M293,172c-0.266,-0.145 -0.533,-0.290 -1,0c-0.467,0.290 -1.136,1.015 -2,3c-0.864,1.985 -1.924,5.230 -3,9c-1.076,3.770 -2.170,8.066 -4,12c-1.830,3.934 -4.398,7.507 -6,11c-1.602,3.493 -2.238,6.907 -4,12c-1.762,5.093 -4.651,11.865 -6,15c-1.349,3.135 -1.160,2.632 -2,5c-0.840,2.368 -2.710,7.605 -4,12c-1.290,4.395 -2.000,7.948 -3,12c-1.000,4.052 -2.292,8.604 -3,12c-0.708,3.396 -0.834,5.636 -2,10c-1.166,4.364 -3.374,10.852 -4,14c-0.626,3.148 0.330,2.957 0,5c-0.330,2.043 -1.946,6.320 -3,11c-1.054,4.680 -1.546,9.762 -2,12c-0.454,2.238 -0.869,1.631 -1,3c-0.131,1.369 0.021,4.714 0,6c-0.021,1.286 -0.216,0.513 0,1c0.216,0.487 0.841,2.234 1,3c0.159,0.766 -0.150,0.552 0,1c0.150,0.448 0.757,1.556 1,2c0.243,0.444 0.121,0.222 0,0"/><path d="M331,218c-0.410,0.024 -0.820,0.049 -1,1c-0.180,0.951 -0.130,2.829 -1,5c-0.870,2.171 -2.661,4.635 -4,7c-1.339,2.365 -2.224,4.633 -4,9c-1.776,4.367 -4.441,10.835 -6,14c-1.559,3.165 -2.013,3.027 -3,5c-0.987,1.973 -2.508,6.058 -4,10c-1.492,3.942 -2.954,7.743 -5,12c-2.046,4.257 -4.676,8.971 -7,13c-2.324,4.029 -4.343,7.374 -6,11c-1.657,3.626 -2.952,7.534 -4,11c-1.048,3.466 -1.850,6.491 -3,9c-1.150,2.509 -2.648,4.501 -4,7c-1.352,2.499 -2.558,5.505 -3,7c-0.442,1.495 -0.119,1.479 0,2c0.119,0.521 0.034,1.577 0,2c-0.034,0.423 -0.017,0.211 0,0"/><path d="M363,227c0.230,0.013 0.461,0.025 -1,4c-1.461,3.975 -4.612,11.912 -6,16c-1.388,4.088 -1.012,4.327 -2,7c-0.988,2.673 -3.338,7.778 -5,11c-1.662,3.222 -2.635,4.559 -5,10c-2.365,5.441 -6.122,14.984 -8,20c-1.878,5.016 -1.875,5.504 -2,6c-0.125,0.496 -0.376,1.000 -2,5c-1.624,4.000 -4.621,11.495 -6,15c-1.379,3.505 -1.139,3.020 -2,5c-0.861,1.980 -2.823,6.425 -4,9c-1.177,2.575 -1.570,3.278 -2,4c-0.430,0.722 -0.899,1.461 -1,2c-0.101,0.539 0.165,0.876 0,1c-0.165,0.124 -0.761,0.035 -1,0c-0.239,-0.035 -0.119,-0.018 0,0"/></g>
<g fill="none" stroke="rgb(170,170,170)" stroke-width="20" stroke-linecap="round" stroke-linejoin="round"><path d="M186,297c-0.275,-0.065 -0.550,-0.131 -1,0c-0.450,0.131 -1.076,0.458 -2,1c-0.924,0.542 -2.147,1.301 -3,2c-0.853,0.699 -1.336,1.340 -2,2c-0.664,0.660 -1.510,1.340 -2,2c-0.490,0.660 -0.623,1.299 -1,2c-0.377,0.701 -0.997,1.464 -1,2c-0.003,0.536 0.613,0.844 1,1c0.387,0.156 0.546,0.160 2,0c1.454,-0.160 4.204,-0.483 6,-1c1.796,-0.517 2.639,-1.226 4,-2c1.361,-0.774 3.241,-1.613 4,-2c0.759,-0.387 0.397,-0.324 1,-1c0.603,-0.676 2.171,-2.092 3,-3c0.829,-0.908 0.919,-1.308 1,-2c0.081,-0.692 0.155,-1.676 0,-2c-0.155,-0.324 -0.537,0.010 -1,0c-0.463,-0.010 -1.005,-0.365 -3,0c-1.995,0.365 -5.441,1.452 -7,2c-1.559,0.548 -1.230,0.559 -2,1c-0.770,0.441 -2.639,1.312 -4,2c-1.361,0.688 -2.214,1.192 -3,2c-0.786,0.808 -1.507,1.919 -2,3c-0.493,1.081 -0.759,2.132 -1,3c-0.241,0.868 -0.456,1.552 0,2c0.456,0.448 1.584,0.659 2,1c0.416,0.341 0.119,0.812 1,1c0.881,0.188 2.941,0.094 5,0"/><path d="M181,313c1.747,0.444 2.114,-0.445 3,-1c0.886,-0.555 2.291,-0.775 3,-1c0.709,-0.225 0.722,-0.455 1,-1c0.278,-0.545 0.819,-1.403 1,-2c0.181,-0.597 -0.000,-0.931 0,-1c0.000,-0.069 0.182,0.129 0,0c-0.182,-0.129 -0.727,-0.585 -1,-1c-0.273,-0.415 -0.273,-0.791 -1,-1c-0.727,-0.209 -2.181,-0.253 -3,0c-0.819,0.253 -1.004,0.803 -1,1c0.004,0.197 0.195,0.043 0,0c-0.195,-0.043 -0.777,0.026 -1,0c-0.223,-0.026 -0.086,-0.146 0,0c0.086,0.146 0.121,0.557 0,1c-0.121,0.443 -0.396,0.918 0,1c0.396,0.082 1.465,-0.229 2,0c0.535,0.229 0.536,1.000 1,1c0.464,0.000 1.392,-0.769 2,-1c0.608,-0.231 0.895,0.078 1,0c0.105,-0.078 0.029,-0.542 0,-1c-0.029,-0.458 -0.012,-0.911 0,-1c0.012,-0.089 0.017,0.186 0,0c-0.017,-0.186 -0.057,-0.834 0,-1c0.057,-0.166 0.211,0.152 0,0c-0.211,-0.152 -0.788,-0.772 -1,-1c-0.212,-0.228 -0.061,-0.065 0,0c0.061,0.065 0.030,0.033 0,0"/></g>
<g fill="none" stroke="rgb(170,170,170)" stroke-width="6" stroke-linecap="round" stroke-linejoin="round"><path d="M177,294c-0.386,0.354 -0.772,0.709 -1,1c-0.228,0.291 -0.299,0.519 -1,1c-0.701,0.481 -2.033,1.216 -3,2c-0.967,0.784 -1.569,1.617 -2,2c-0.431,0.383 -0.690,0.315 -1,1c-0.310,0.685 -0.672,2.123 -1,3c-0.328,0.877 -0.622,1.193 -1,2c-0.378,0.807 -0.841,2.104 -1,3c-0.159,0.896 -0.014,1.392 0,2c0.014,0.608 -0.104,1.330 0,2c0.104,0.670 0.428,1.290 1,2c0.572,0.710 1.390,1.510 2,2c0.610,0.490 1.010,0.670 3,1c1.990,0.330 5.568,0.808 7,1c1.432,0.192 0.716,0.096 0,0"/><path d="M194,295c-0.227,-0.210 -0.453,-0.419 0,0c0.453,0.419 1.587,1.467 2,2c0.413,0.533 0.107,0.552 0,1c-0.107,0.448 -0.015,1.324 0,2c0.015,0.676 -0.048,1.150 0,2c0.048,0.850 0.205,2.074 0,3c-0.205,0.926 -0.773,1.554 -1,2c-0.227,0.446 -0.112,0.711 0,1c0.112,0.289 0.223,0.603 0,1c-0.223,0.397 -0.778,0.877 -1,1c-0.222,0.123 -0.111,-0.111 0,0c0.111,0.111 0.222,0.568 0,1c-0.222,0.432 -0.778,0.838 -1,1c-0.222,0.162 -0.111,0.081 0,0"/><path d="M178,324c0.322,0.358 0.645,0.716 1,1c0.355,0.284 0.743,0.496 1,1c0.257,0.504 0.384,1.302 1,2c0.616,0.698 1.720,1.298 2,2c0.280,0.702 -0.265,1.508 0,2c0.265,0.492 1.341,0.671 2,1c0.659,0.329 0.903,0.808 1,1c0.097,0.192 0.049,0.096 0,0"/><path d="M188,320c-0.122,-0.044 -0.244,-0.088 0,0c0.244,0.088 0.854,0.307 1,1c0.146,0.693 -0.171,1.859 0,3c0.171,1.141 0.829,2.257 1,3c0.171,0.743 -0.147,1.113 0,2c0.147,0.887 0.758,2.290 1,3c0.242,0.710 0.117,0.726 0,1c-0.117,0.274 -0.224,0.804 0,1c0.224,0.196 0.778,0.056 1,0c0.222,-0.056 0.111,-0.028 0,0"/><path d="M185,338c0.356,-0.483 0.711,-0.966 1,-1c0.289,-0.034 0.510,0.380 1,0c0.490,-0.380 1.249,-1.553 2,-2c0.751,-0.447 1.493,-0.169 2,0c0.507,0.169 0.781,0.227 1,0c0.219,-0.227 0.385,-0.740 1,-1c0.615,-0.260 1.678,-0.265 2,0c0.322,0.265 -0.099,0.802 0,1c0.099,0.198 0.718,0.057 1,0c0.282,-0.057 0.228,-0.030 0,0c-0.228,0.030 -0.628,0.064 -1,0c-0.372,-0.064 -0.714,-0.224 -1,0c-0.286,0.224 -0.514,0.833 -1,1c-0.486,0.167 -1.230,-0.109 -2,0c-0.770,0.109 -1.565,0.603 -2,1c-0.435,0.397 -0.509,0.698 -1,1c-0.491,0.302 -1.400,0.606 -2,1c-0.600,0.394 -0.890,0.880 -1,1c-0.110,0.120 -0.041,-0.126 0,0c0.041,0.126 0.052,0.622 0,1c-0.052,0.378 -0.169,0.637 0,1c0.169,0.363 0.622,0.828 1,1c0.378,0.172 0.679,0.049 1,0c0.321,-0.049 0.660,-0.025 1,0"/><path d="M188,343c0.333,0.667 0.167,0.333 0,0"/><path d="M201,331c-0.006,-0.071 -0.011,-0.141 0,0c0.011,0.141 0.040,0.494 0,1c-0.040,0.506 -0.148,1.164 0,2c0.148,0.836 0.551,1.849 1,3c0.449,1.151 0.944,2.440 1,4c0.056,1.560 -0.326,3.392 0,6c0.326,2.608 1.359,5.993 2,9c0.641,3.007 0.890,5.637 1,7c0.110,1.363 0.081,1.458 0,3c-0.081,1.542 -0.214,4.531 0,8c0.214,3.469 0.775,7.420 1,9c0.225,1.580 0.112,0.790 0,0"/><path d="M185,341c-0.091,0.256 -0.182,0.512 0,1c0.182,0.488 0.636,1.207 1,2c0.364,0.793 0.636,1.661 1,4c0.364,2.339 0.820,6.150 1,8c0.180,1.850 0.084,1.738 0,3c-0.084,1.262 -0.157,3.896 0,6c0.157,2.104 0.543,3.678 1,5c0.457,1.322 0.984,2.393 2,4c1.016,1.607 2.520,3.750 4,5c1.480,1.250 2.937,1.606 4,2c1.063,0.394 1.732,0.827 2,1c0.268,0.173 0.134,0.087 0,0"/><path d="M201,342c-0.119,0.070 -0.239,0.139 0,0c0.239,-0.139 0.836,-0.488 2,0c1.164,0.488 2.894,1.812 4,3c1.106,1.188 1.589,2.238 2,4c0.411,1.762 0.751,4.235 1,6c0.249,1.765 0.406,2.823 1,5c0.594,2.177 1.623,5.475 2,8c0.377,2.525 0.101,4.277 0,5c-0.101,0.723 -0.027,0.417 0,1c0.027,0.583 0.008,2.055 0,3c-0.008,0.945 -0.006,1.362 0,2c0.006,0.638 0.015,1.495 0,2c-0.015,0.505 -0.056,0.657 0,1c0.056,0.343 0.208,0.876 0,1c-0.208,0.124 -0.778,-0.162 -1,0c-0.222,0.162 -0.097,0.771 0,1c0.097,0.229 0.165,0.079 0,0c-0.165,-0.079 -0.564,-0.087 -1,1c-0.436,1.087 -0.908,3.269 -1,4c-0.092,0.731 0.197,0.012 0,0c-0.197,-0.012 -0.882,0.682 -1,1c-0.118,0.318 0.329,0.261 0,0c-0.329,-0.261 -1.435,-0.724 -2,-1c-0.565,-0.276 -0.590,-0.365 -1,-1c-0.410,-0.635 -1.205,-1.818 -2,-3"/><path d="M204,385c-1.171,-0.513 -1.097,0.206 -1,0c0.097,-0.206 0.219,-1.335 0,-2c-0.219,-0.665 -0.777,-0.865 -1,-1c-0.223,-0.135 -0.109,-0.203 0,0c0.109,0.203 0.215,0.678 0,1c-0.215,0.322 -0.750,0.493 -1,1c-0.250,0.507 -0.214,1.351 0,2c0.214,0.649 0.606,1.102 1,2c0.394,0.898 0.789,2.241 1,3c0.211,0.759 0.239,0.934 1,1c0.761,0.066 2.257,0.023 3,0c0.743,-0.023 0.734,-0.026 1,0c0.266,0.026 0.807,0.081 1,0c0.193,-0.081 0.038,-0.296 0,0c-0.038,0.296 0.041,1.105 0,2c-0.041,0.895 -0.203,1.876 0,3c0.203,1.124 0.772,2.391 1,4c0.228,1.609 0.117,3.559 0,5c-0.117,1.441 -0.238,2.372 0,3c0.238,0.628 0.834,0.953 1,1c0.166,0.047 -0.100,-0.183 0,-1c0.100,-0.817 0.565,-2.220 1,-3c0.435,-0.780 0.838,-0.937 1,-1c0.162,-0.063 0.081,-0.031 0,0"/><path d="M209,365c0.286,-0.710 0.572,-1.421 1,-2c0.428,-0.579 0.998,-1.027 2,-2c1.002,-0.973 2.435,-2.469 3,-3c0.565,-0.531 0.262,-0.095 1,-1c0.738,-0.905 2.519,-3.152 4,-5c1.481,-1.848 2.663,-3.298 4,-5c1.337,-1.702 2.828,-3.657 4,-5c1.172,-1.343 2.026,-2.073 3,-3c0.974,-0.927 2.069,-2.052 3,-3c0.931,-0.948 1.697,-1.718 2,-2c0.303,-0.282 0.141,-0.076 0,0c-0.141,0.076 -0.261,0.021 0,0c0.261,-0.021 0.904,-0.009 1,0c0.096,0.009 -0.356,0.014 0,0c0.356,-0.014 1.521,-0.049 2,0c0.479,0.049 0.273,0.181 2,0c1.727,-0.181 5.388,-0.676 8,-1c2.612,-0.324 4.174,-0.479 7,-1c2.826,-0.521 6.915,-1.410 10,-2c3.085,-0.590 5.167,-0.883 6,-1c0.833,-0.117 0.416,-0.059 0,0"/><path d="M230,355c1.986,-0.794 3.972,-1.588 6,-3c2.028,-1.412 4.096,-3.443 7,-5c2.904,-1.557 6.642,-2.642 10,-4c3.358,-1.358 6.336,-2.991 9,-4c2.664,-1.009 5.013,-1.394 7,-1c1.987,0.394 3.612,1.568 5,2c1.388,0.432 2.539,0.124 3,0c0.461,-0.124 0.230,-0.062 0,0"/><path d="M183,339c-0.984,-0.772 -1.968,-1.543 -3,-2c-1.032,-0.457 -2.113,-0.598 -3,-1c-0.887,-0.402 -1.582,-1.063 -3,-2c-1.418,-0.937 -3.559,-2.150 -5,-3c-1.441,-0.850 -2.181,-1.337 -3,-2c-0.819,-0.663 -1.716,-1.502 -3,-2c-1.284,-0.498 -2.956,-0.655 -4,-1c-1.044,-0.345 -1.462,-0.878 -2,-1c-0.538,-0.122 -1.196,0.167 -2,0c-0.804,-0.167 -1.755,-0.789 -2,-1c-0.245,-0.211 0.214,-0.012 0,0c-0.214,0.012 -1.102,-0.164 -2,0c-0.898,0.164 -1.805,0.669 -2,1c-0.195,0.331 0.323,0.489 -1,1c-1.323,0.511 -4.488,1.375 -6,2c-1.512,0.625 -1.372,1.011 -3,2c-1.628,0.989 -5.023,2.579 -8,4c-2.977,1.421 -5.535,2.672 -8,4c-2.465,1.328 -4.836,2.734 -7,4c-2.164,1.266 -4.121,2.392 -6,3c-1.879,0.608 -3.680,0.699 -5,1c-1.320,0.301 -2.158,0.813 -3,1c-0.842,0.187 -1.688,0.050 -2,0c-0.312,-0.050 -0.089,-0.014 0,0c0.089,0.014 0.045,0.007 0,0"/><path d="M158,334c-0.195,0.032 -0.390,0.065 -1,0c-0.610,-0.065 -1.634,-0.226 -3,0c-1.366,0.226 -3.073,0.841 -5,2c-1.927,1.159 -4.073,2.862 -7,4c-2.927,1.138 -6.633,1.710 -10,3c-3.367,1.290 -6.394,3.297 -9,5c-2.606,1.703 -4.792,3.101 -7,4c-2.208,0.899 -4.437,1.299 -6,2c-1.563,0.701 -2.461,1.705 -3,2c-0.539,0.295 -0.718,-0.118 -1,0c-0.282,0.118 -0.668,0.768 -1,1c-0.332,0.232 -0.610,0.048 -1,0c-0.390,-0.048 -0.893,0.040 -1,0c-0.107,-0.040 0.182,-0.210 0,0c-0.182,0.210 -0.836,0.798 -1,1c-0.164,0.202 0.162,0.016 0,0c-0.162,-0.016 -0.813,0.136 -1,0c-0.187,-0.136 0.090,-0.561 0,-1c-0.090,-0.439 -0.546,-0.892 -1,-1c-0.454,-0.108 -0.906,0.130 -1,0c-0.094,-0.130 0.171,-0.629 0,-1c-0.171,-0.371 -0.778,-0.613 -1,-1c-0.222,-0.387 -0.060,-0.918 0,-1c0.060,-0.082 0.016,0.286 0,0c-0.016,-0.286 -0.005,-1.224 0,-2c0.005,-0.776 0.002,-1.388 0,-2"/><path d="M98,349c-0.238,-1.619 0.667,-1.167 1,-1c0.333,0.167 0.095,0.048 0,0c-0.095,-0.048 -0.048,-0.024 0,0"/></g>
<g fill="none" stroke="rgb(0,0,0)" stroke-width="4" stroke-linecap="round" stroke-linejoin="round"><path d="M170,334c0.009,-0.447 0.017,-0.894 0,-1c-0.017,-0.106 -0.060,0.127 0,0c0.060,-0.127 0.222,-0.616 0,-1c-0.222,-0.384 -0.829,-0.662 -1,-1c-0.171,-0.338 0.095,-0.735 0,-1c-0.095,-0.265 -0.549,-0.397 -1,-1c-0.451,-0.603 -0.898,-1.678 -1,-2c-0.102,-0.322 0.141,0.110 0,0c-0.141,-0.110 -0.668,-0.763 -1,-1c-0.332,-0.237 -0.471,-0.060 -1,0c-0.529,0.060 -1.450,0.003 -2,0c-0.550,-0.003 -0.730,0.050 -1,0c-0.270,-0.050 -0.632,-0.202 -2,0c-1.368,0.202 -3.743,0.758 -5,1c-1.257,0.242 -1.396,0.169 -2,0c-0.604,-0.169 -1.674,-0.435 -3,0c-1.326,0.435 -2.908,1.569 -4,2c-1.092,0.431 -1.693,0.158 -2,0c-0.307,-0.158 -0.320,-0.201 -1,0c-0.680,0.201 -2.027,0.645 -3,1c-0.973,0.355 -1.571,0.620 -2,1c-0.429,0.380 -0.689,0.876 -1,1c-0.311,0.124 -0.672,-0.125 -1,0c-0.328,0.125 -0.624,0.625 -1,1c-0.376,0.375 -0.833,0.626 -1,1c-0.167,0.374 -0.045,0.870 0,1c0.045,0.130 0.013,-0.106 0,0c-0.013,0.106 -0.006,0.553 0,1"/><path d="M134,336c-0.730,1.284 0.446,1.493 1,2c0.554,0.507 0.485,1.313 1,2c0.515,0.687 1.613,1.257 4,2c2.387,0.743 6.061,1.659 8,2c1.939,0.341 2.142,0.105 3,0c0.858,-0.105 2.373,-0.081 5,0c2.627,0.081 6.368,0.218 9,0c2.632,-0.218 4.156,-0.790 5,-1c0.844,-0.210 1.010,-0.056 2,0c0.990,0.056 2.805,0.015 4,0c1.195,-0.015 1.770,-0.004 2,0c0.230,0.004 0.115,0.002 0,0"/><path d="M129,334c-0.246,0.004 -0.491,0.009 -1,0c-0.509,-0.009 -1.281,-0.031 -3,1c-1.719,1.031 -4.386,3.117 -6,4c-1.614,0.883 -2.175,0.564 -3,1c-0.825,0.436 -1.912,1.627 -5,4c-3.088,2.373 -8.176,5.928 -11,8c-2.824,2.072 -3.383,2.661 -4,3c-0.617,0.339 -1.291,0.430 -2,1c-0.709,0.570 -1.454,1.621 -2,2c-0.546,0.379 -0.894,0.086 -1,0c-0.106,-0.086 0.031,0.033 0,0c-0.031,-0.033 -0.229,-0.220 0,0c0.229,0.220 0.886,0.847 1,1c0.114,0.153 -0.315,-0.168 0,0c0.315,0.168 1.374,0.823 2,1c0.626,0.177 0.817,-0.125 1,0c0.183,0.125 0.356,0.677 1,1c0.644,0.323 1.758,0.418 3,0c1.242,-0.418 2.612,-1.350 4,-2c1.388,-0.650 2.795,-1.019 5,-2c2.205,-0.981 5.207,-2.575 7,-4c1.793,-1.425 2.378,-2.681 3,-3c0.622,-0.319 1.283,0.299 2,0c0.717,-0.299 1.491,-1.514 2,-2c0.509,-0.486 0.755,-0.243 1,0"/><path d="M123,348c3.733,-2.244 1.067,-1.356 0,-1c-1.067,0.356 -0.533,0.178 0,0"/><path d="M104,351c0.000,-0.833 0.000,-1.667 0,-2c0.000,-0.333 0.000,-0.167 0,0"/><path d="M65,266c0.662,1.328 1.324,2.656 2,4c0.676,1.344 1.367,2.703 3,6c1.633,3.297 4.207,8.532 6,14c1.793,5.468 2.805,11.167 5,20c2.195,8.833 5.573,20.798 7,26c1.427,5.202 0.905,3.640 1,7c0.095,3.360 0.809,11.643 1,15c0.191,3.357 -0.141,1.788 0,2c0.141,0.212 0.755,2.203 1,3c0.245,0.797 0.123,0.398 0,0"/><path d="M87,348c-0.370,-0.030 -0.740,-0.061 -1,0c-0.260,0.061 -0.409,0.212 -1,0c-0.591,-0.212 -1.623,-0.789 -2,-1c-0.377,-0.211 -0.099,-0.058 -1,0c-0.901,0.058 -2.980,0.019 -4,0c-1.020,-0.019 -0.982,-0.019 -2,0c-1.018,0.019 -3.092,0.057 -4,0c-0.908,-0.057 -0.649,-0.209 -1,0c-0.351,0.209 -1.311,0.780 -2,1c-0.689,0.220 -1.106,0.090 -1,0c0.106,-0.090 0.735,-0.140 1,0c0.265,0.140 0.165,0.471 1,1c0.835,0.529 2.606,1.256 4,2c1.394,0.744 2.411,1.506 3,2c0.589,0.494 0.750,0.721 1,1c0.250,0.279 0.589,0.611 1,1c0.411,0.389 0.895,0.836 1,1c0.105,0.164 -0.168,0.044 0,0c0.168,-0.044 0.776,-0.012 1,0c0.224,0.012 0.064,0.003 0,0c-0.064,-0.003 -0.032,-0.002 0,0"/><path d="M175,321c-0.309,-0.036 -0.618,-0.072 -1,-1c-0.382,-0.928 -0.836,-2.748 -1,-4c-0.164,-1.252 -0.039,-1.934 0,-3c0.039,-1.066 -0.008,-2.514 0,-4c0.008,-1.486 0.069,-3.009 0,-4c-0.069,-0.991 -0.270,-1.448 0,-2c0.270,-0.552 1.009,-1.198 2,-3c0.991,-1.802 2.232,-4.760 3,-6c0.768,-1.240 1.063,-0.763 2,-1c0.937,-0.237 2.515,-1.190 4,-2c1.485,-0.810 2.875,-1.479 4,-2c1.125,-0.521 1.985,-0.895 3,-1c1.015,-0.105 2.185,0.058 3,0c0.815,-0.058 1.275,-0.336 2,0c0.725,0.336 1.715,1.287 3,2c1.285,0.713 2.866,1.188 4,2c1.134,0.812 1.822,1.960 3,3c1.178,1.040 2.848,1.973 4,3c1.152,1.027 1.787,2.149 2,3c0.213,0.851 0.004,1.430 0,2c-0.004,0.570 0.198,1.131 0,2c-0.198,0.869 -0.795,2.047 -2,4c-1.205,1.953 -3.017,4.680 -4,6c-0.983,1.320 -1.138,1.234 -2,2c-0.862,0.766 -2.431,2.383 -4,4"/><path d="M200,321c-1.853,3.033 -0.486,0.617 -1,0c-0.514,-0.617 -2.908,0.567 -4,1c-1.092,0.433 -0.880,0.116 -1,0c-0.120,-0.116 -0.571,-0.031 -1,0c-0.429,0.031 -0.837,0.009 -1,0c-0.163,-0.009 -0.082,-0.004 0,0"/><path d="M161,313c0.359,-0.575 0.718,-1.150 1,-2c0.282,-0.850 0.488,-1.976 1,-3c0.512,-1.024 1.329,-1.947 2,-3c0.671,-1.053 1.195,-2.236 2,-4c0.805,-1.764 1.890,-4.109 2,-5c0.110,-0.891 -0.756,-0.330 0,-1c0.756,-0.670 3.134,-2.573 5,-4c1.866,-1.427 3.218,-2.378 6,-3c2.782,-0.622 6.992,-0.916 9,-1c2.008,-0.084 1.814,0.040 3,0c1.186,-0.040 3.754,-0.246 6,0c2.246,0.246 4.171,0.944 5,1c0.829,0.056 0.562,-0.532 1,0c0.438,0.532 1.582,2.182 2,3c0.418,0.818 0.109,0.804 0,1c-0.109,0.196 -0.017,0.600 0,1c0.017,0.400 -0.042,0.794 0,1c0.042,0.206 0.185,0.224 0,0c-0.185,-0.224 -0.697,-0.691 -1,-1c-0.303,-0.309 -0.397,-0.462 -1,-1c-0.603,-0.538 -1.716,-1.462 -3,-2c-1.284,-0.538 -2.738,-0.692 -4,-1c-1.262,-0.308 -2.333,-0.771 -4,-1c-1.667,-0.229 -3.930,-0.224 -6,0c-2.070,0.224 -3.947,0.668 -6,1c-2.053,0.332 -4.284,0.551 -6,1c-1.716,0.449 -2.919,1.128 -4,2c-1.081,0.872 -2.041,1.936 -3,3"/><path d="M168,295c-3.332,1.923 -2.161,3.231 -2,5c0.161,1.769 -0.686,3.998 -1,5c-0.314,1.002 -0.094,0.776 0,2c0.094,1.224 0.063,3.897 0,5c-0.063,1.103 -0.158,0.634 0,1c0.158,0.366 0.567,1.566 1,2c0.433,0.434 0.889,0.104 1,0c0.111,-0.104 -0.123,0.020 0,0c0.123,-0.020 0.605,-0.185 1,-2c0.395,-1.815 0.705,-5.281 1,-7c0.295,-1.719 0.574,-1.693 1,-3c0.426,-1.307 0.997,-3.948 2,-6c1.003,-2.052 2.437,-3.517 4,-5c1.563,-1.483 3.254,-2.985 5,-4c1.746,-1.015 3.547,-1.542 5,-2c1.453,-0.458 2.558,-0.845 3,-1c0.442,-0.155 0.221,-0.077 0,0"/><path d="M177,308c0.417,0.000 0.833,0.000 1,0c0.167,0.000 0.083,0.000 0,0"/><path d="M198,303c0.000,0.000 0.100,0.100 0.09999999999999432,0.10000000000002274"/><path d="M177,318c-0.254,0.211 -0.507,0.422 0,0c0.507,-0.422 1.776,-1.476 3,-2c1.224,-0.524 2.404,-0.519 4,-1c1.596,-0.481 3.608,-1.449 5,-2c1.392,-0.551 2.163,-0.683 3,-1c0.837,-0.317 1.740,-0.817 3,-1c1.260,-0.183 2.878,-0.049 4,0c1.122,0.049 1.749,0.014 2,0c0.251,-0.014 0.125,-0.007 0,0"/><path d="M189,323c-0.008,0.210 -0.016,0.420 0,1c0.016,0.580 0.055,1.531 0,2c-0.055,0.469 -0.204,0.455 0,1c0.204,0.545 0.762,1.648 1,2c0.238,0.352 0.157,-0.047 0,0c-0.157,0.047 -0.390,0.542 0,1c0.390,0.458 1.403,0.881 2,1c0.597,0.119 0.779,-0.065 1,0c0.221,0.065 0.482,0.378 1,0c0.518,-0.378 1.293,-1.448 2,-2c0.707,-0.552 1.346,-0.586 2,-1c0.654,-0.414 1.324,-1.210 2,-2c0.676,-0.790 1.358,-1.576 2,-2c0.642,-0.424 1.244,-0.485 2,0c0.756,0.485 1.667,1.516 2,2c0.333,0.484 0.089,0.421 0,1c-0.089,0.579 -0.024,1.802 0,3c0.024,1.198 0.006,2.373 0,3c-0.006,0.627 -0.002,0.707 0,1c0.002,0.293 0.000,0.798 0,1c-0.000,0.202 -0.000,0.101 0,0"/><path d="M179,338c0.025,-0.209 0.049,-0.417 0,0c-0.049,0.417 -0.172,1.460 0,2c0.172,0.540 0.637,0.575 1,1c0.363,0.425 0.623,1.238 1,2c0.377,0.762 0.872,1.473 1,2c0.128,0.527 -0.109,0.871 0,1c0.109,0.129 0.566,0.043 1,0c0.434,-0.043 0.845,-0.044 1,0c0.155,0.044 0.055,0.131 1,0c0.945,-0.131 2.937,-0.481 4,-1c1.063,-0.519 1.199,-1.208 2,-2c0.801,-0.792 2.267,-1.688 3,-2c0.733,-0.312 0.733,-0.041 1,0c0.267,0.041 0.801,-0.148 1,0c0.199,0.148 0.061,0.632 0,1c-0.061,0.368 -0.047,0.620 0,1c0.047,0.380 0.125,0.886 0,1c-0.125,0.114 -0.453,-0.166 -1,0c-0.547,0.166 -1.312,0.777 -2,1c-0.688,0.223 -1.298,0.059 -2,0c-0.702,-0.059 -1.494,-0.012 -2,0c-0.506,0.012 -0.724,-0.011 -1,0c-0.276,0.011 -0.611,0.057 -1,0c-0.389,-0.057 -0.834,-0.217 -1,0c-0.166,0.217 -0.055,0.811 0,1c0.055,0.189 0.053,-0.026 0,0c-0.053,0.026 -0.158,0.293 0,1c0.158,0.707 0.579,1.853 1,3"/><path d="M187,350c0.330,1.615 0.654,3.152 1,5c0.346,1.848 0.713,4.007 1,7c0.287,2.993 0.494,6.820 1,10c0.506,3.180 1.312,5.714 2,9c0.688,3.286 1.256,7.324 2,10c0.744,2.676 1.662,3.990 2,5c0.338,1.010 0.097,1.717 0,2c-0.097,0.283 -0.048,0.141 0,0"/><path d="M202,339c-0.067,-0.080 -0.133,-0.160 1,1c1.133,1.160 3.467,3.560 5,7c1.533,3.440 2.267,7.918 3,12c0.733,4.082 1.465,7.766 2,11c0.535,3.234 0.872,6.017 1,10c0.128,3.983 0.047,9.165 0,12c-0.047,2.835 -0.059,3.321 0,4c0.059,0.679 0.189,1.549 0,2c-0.189,0.451 -0.696,0.482 -1,0c-0.304,-0.482 -0.405,-1.478 -1,-3c-0.595,-1.522 -1.684,-3.570 -3,-6c-1.316,-2.430 -2.859,-5.241 -4,-7c-1.141,-1.759 -1.879,-2.467 -2,-3c-0.121,-0.533 0.374,-0.892 0,-1c-0.374,-0.108 -1.617,0.036 -2,0c-0.383,-0.036 0.093,-0.252 0,0c-0.093,0.252 -0.757,0.972 -1,2c-0.243,1.028 -0.065,2.365 0,4c0.065,1.635 0.017,3.568 0,6c-0.017,2.432 -0.002,5.361 0,8c0.002,2.639 -0.007,4.987 0,7c0.007,2.013 0.030,3.690 0,5c-0.030,1.310 -0.113,2.251 0,3c0.113,0.749 0.423,1.306 1,1c0.577,-0.306 1.423,-1.474 2,-2c0.577,-0.526 0.886,-0.411 2,-1c1.114,-0.589 3.033,-1.883 5,-3c1.967,-1.117 3.984,-2.059 6,-3"/><path d="M216,405c2.667,-1.333 1.333,-0.667 0,0"/><path d="M220,352c0.301,-0.787 0.603,-1.574 1,-2c0.397,-0.426 0.891,-0.492 1,-1c0.109,-0.508 -0.167,-1.460 0,-2c0.167,-0.540 0.777,-0.668 1,-1c0.223,-0.332 0.060,-0.867 0,-1c-0.060,-0.133 -0.016,0.135 0,0c0.016,-0.135 0.005,-0.673 0,-1c-0.005,-0.327 -0.002,-0.445 0,-1c0.002,-0.555 0.004,-1.549 0,-2c-0.004,-0.451 -0.013,-0.358 0,-1c0.013,-0.642 0.048,-2.017 0,-3c-0.048,-0.983 -0.180,-1.573 0,-2c0.180,-0.427 0.672,-0.693 1,-1c0.328,-0.307 0.490,-0.657 1,-1c0.510,-0.343 1.366,-0.680 2,-1c0.634,-0.320 1.045,-0.622 2,-1c0.955,-0.378 2.456,-0.832 3,-1c0.544,-0.168 0.133,-0.049 1,0c0.867,0.049 3.011,0.027 4,0c0.989,-0.027 0.822,-0.059 2,0c1.178,0.059 3.702,0.208 5,0c1.298,-0.208 1.371,-0.774 2,-1c0.629,-0.226 1.815,-0.113 3,0"/><path d="M249,329c4.379,-0.939 2.826,-0.788 3,-1c0.174,-0.212 2.074,-0.789 3,-1c0.926,-0.211 0.877,-0.058 1,0c0.123,0.058 0.417,0.020 1,0c0.583,-0.020 1.455,-0.020 2,0c0.545,0.020 0.763,0.062 1,0c0.237,-0.062 0.495,-0.226 1,0c0.505,0.226 1.259,0.844 2,1c0.741,0.156 1.469,-0.150 2,0c0.531,0.150 0.866,0.757 1,1c0.134,0.243 0.067,0.121 0,0"/><path d="M221,359c0.016,0.371 0.031,0.742 1,0c0.969,-0.742 2.891,-2.597 5,-4c2.109,-1.403 4.404,-2.352 7,-4c2.596,-1.648 5.494,-3.994 8,-6c2.506,-2.006 4.622,-3.673 7,-5c2.378,-1.327 5.020,-2.314 7,-3c1.980,-0.686 3.299,-1.070 4,-1c0.701,0.070 0.783,0.593 1,1c0.217,0.407 0.570,0.697 1,1c0.430,0.303 0.939,0.617 1,1c0.061,0.383 -0.324,0.835 0,1c0.324,0.165 1.356,0.045 2,0c0.644,-0.045 0.898,-0.013 1,0c0.102,0.013 0.051,0.006 0,0"/><path d="M278,327c-0.431,-0.120 -0.862,-0.239 0,0c0.862,0.239 3.019,0.838 5,1c1.981,0.162 3.788,-0.111 6,0c2.212,0.111 4.831,0.607 7,1c2.169,0.393 3.890,0.683 6,1c2.110,0.317 4.611,0.659 7,1c2.389,0.341 4.665,0.680 7,1c2.335,0.320 4.727,0.621 6,1c1.273,0.379 1.426,0.837 2,1c0.574,0.163 1.569,0.029 2,0c0.431,-0.029 0.297,0.045 0,0c-0.297,-0.045 -0.755,-0.208 -1,0c-0.245,0.208 -0.275,0.788 -1,1c-0.725,0.212 -2.146,0.055 -3,0c-0.854,-0.055 -1.141,-0.010 -2,0c-0.859,0.010 -2.290,-0.015 -4,0c-1.710,0.015 -3.697,0.070 -6,1c-2.303,0.930 -4.921,2.735 -8,4c-3.079,1.265 -6.620,1.989 -9,3c-2.380,1.011 -3.601,2.309 -5,3c-1.399,0.691 -2.977,0.776 -4,1c-1.023,0.224 -1.490,0.585 -2,1c-0.510,0.415 -1.064,0.882 -1,1c0.064,0.118 0.746,-0.112 1,0c0.254,0.112 0.079,0.566 1,1c0.921,0.434 2.938,0.848 5,1c2.062,0.152 4.171,0.041 6,0c1.829,-0.041 3.380,-0.012 5,0c1.620,0.012 3.310,0.006 5,0"/><path d="M303,351c4.345,0.083 3.708,-0.708 4,-1c0.292,-0.292 1.512,-0.083 2,0c0.488,0.083 0.244,0.042 0,0"/><path d="M322,336c0.065,-0.671 0.130,-1.343 1,-2c0.870,-0.657 2.547,-1.300 4,-2c1.453,-0.700 2.684,-1.456 4,-2c1.316,-0.544 2.718,-0.877 4,-1c1.282,-0.123 2.446,-0.038 3,0c0.554,0.038 0.499,0.027 1,0c0.501,-0.027 1.557,-0.072 2,0c0.443,0.072 0.273,0.260 0,1c-0.273,0.740 -0.650,2.030 -2,3c-1.350,0.970 -3.672,1.619 -5,2c-1.328,0.381 -1.663,0.494 -3,1c-1.337,0.506 -3.677,1.405 -6,2c-2.323,0.595 -4.630,0.888 -6,1c-1.370,0.112 -1.803,0.044 -2,0c-0.197,-0.044 -0.158,-0.064 0,0c0.158,0.064 0.434,0.213 1,0c0.566,-0.213 1.422,-0.788 2,-1c0.578,-0.212 0.880,-0.061 1,0c0.120,0.061 0.060,0.030 0,0"/><path d="M215,378c0.002,0.469 0.004,0.938 0,1c-0.004,0.062 -0.015,-0.283 0,0c0.015,0.283 0.057,1.194 0,2c-0.057,0.806 -0.212,1.506 0,2c0.212,0.494 0.793,0.781 1,1c0.207,0.219 0.042,0.370 0,1c-0.042,0.630 0.040,1.741 0,2c-0.040,0.259 -0.203,-0.333 0,0c0.203,0.333 0.773,1.592 1,2c0.227,0.408 0.110,-0.034 0,0c-0.110,0.034 -0.213,0.544 0,1c0.213,0.456 0.741,0.859 1,1c0.259,0.141 0.248,0.019 1,1c0.752,0.981 2.266,3.063 3,4c0.734,0.937 0.687,0.729 1,2c0.313,1.271 0.986,4.022 2,6c1.014,1.978 2.370,3.184 3,4c0.630,0.816 0.533,1.241 1,2c0.467,0.759 1.496,1.853 2,3c0.504,1.147 0.482,2.347 1,3c0.518,0.653 1.577,0.758 2,1c0.423,0.242 0.212,0.621 0,1"/><path d="M234,418c2.839,4.553 1.438,1.937 1,1c-0.438,-0.937 0.088,-0.195 0,0c-0.088,0.195 -0.788,-0.156 -1,0c-0.212,0.156 0.065,0.820 0,1c-0.065,0.180 -0.473,-0.123 -1,0c-0.527,0.123 -1.172,0.672 -2,1c-0.828,0.328 -1.838,0.434 -3,1c-1.162,0.566 -2.475,1.590 -3,2c-0.525,0.410 -0.263,0.205 0,0"/><path d="M188,361c-0.127,-0.587 -0.254,-1.174 1,-2c1.254,-0.826 3.888,-1.893 6,-3c2.112,-1.107 3.700,-2.256 5,-3c1.300,-0.744 2.312,-1.085 4,-2c1.688,-0.915 4.054,-2.404 5,-3c0.946,-0.596 0.473,-0.298 0,0"/><path d="M191,371c0.218,0.081 0.436,0.162 1,0c0.564,-0.162 1.474,-0.568 3,-1c1.526,-0.432 3.666,-0.890 6,-2c2.334,-1.110 4.860,-2.872 7,-4c2.140,-1.128 3.893,-1.622 5,-2c1.107,-0.378 1.567,-0.640 2,-1c0.433,-0.360 0.838,-0.817 1,-1c0.162,-0.183 0.081,-0.091 0,0"/></g>
</svg>